<svg
  width="270"
  height="77"
  viewBox="0 0 314.2597322846555 90.09856709446427"
>
  <g
    id="SvgjsG1014"
    featurekey="5TMTKC-0"
    transform="matrix(0.985761193775417,0,0,0.985761193775417,-4.23877332125332,-4.23877332125332)"
    fill="#c8e7ed"
  >
    <path
      xmlns="http://www.w3.org/2000/svg"
      d="M32.5,76.3c-4.8,0-8.8-3.9-8.8-8.8V32.5c0-4.8,3.9-8.8,8.8-8.8h34.9c4.8,0,8.8,3.9,8.8,8.8v34.9c0,4.8-3.9,8.8-8.8,8.8H32.5  z M32.5,28.7c-2.1,0-3.8,1.7-3.8,3.8v34.9c0,2.1,1.7,3.8,3.8,3.8h34.9c2.1,0,3.8-1.7,3.8-3.8V32.5c0-2.1-1.7-3.8-3.8-3.8H32.5z"
    ></path>
    <path
      xmlns="http://www.w3.org/2000/svg"
      d="M30,95.7c-1.4,0-2.5-1.1-2.5-2.5v-8.3c0-1.4,1.1-2.5,2.5-2.5s2.5,1.1,2.5,2.5v8.3C32.5,94.5,31.4,95.7,30,95.7z"
    ></path>
    <path
      xmlns="http://www.w3.org/2000/svg"
      d="M43,95.7c-1.4,0-2.5-1.1-2.5-2.5v-8.3c0-1.4,1.1-2.5,2.5-2.5s2.5,1.1,2.5,2.5v8.3C45.5,94.5,44.4,95.7,43,95.7z"
    ></path>
    <path
      xmlns="http://www.w3.org/2000/svg"
      d="M57,95.7c-1.4,0-2.5-1.1-2.5-2.5v-8.3c0-1.4,1.1-2.5,2.5-2.5s2.5,1.1,2.5,2.5v8.3C59.5,94.5,58.4,95.7,57,95.7z"
    ></path>
    <path
      xmlns="http://www.w3.org/2000/svg"
      d="M70,95.7c-1.4,0-2.5-1.1-2.5-2.5v-8.3c0-1.4,1.1-2.5,2.5-2.5s2.5,1.1,2.5,2.5v8.3C72.5,94.5,71.4,95.7,70,95.7z"
    ></path>
    <path
      xmlns="http://www.w3.org/2000/svg"
      d="M30,17.7c-1.4,0-2.5-1.1-2.5-2.5V6.8c0-1.4,1.1-2.5,2.5-2.5s2.5,1.1,2.5,2.5v8.3C32.5,16.5,31.4,17.7,30,17.7z"
    ></path>
    <path
      xmlns="http://www.w3.org/2000/svg"
      d="M43,17.7c-1.4,0-2.5-1.1-2.5-2.5V6.8c0-1.4,1.1-2.5,2.5-2.5s2.5,1.1,2.5,2.5v8.3C45.5,16.5,44.4,17.7,43,17.7z"
    ></path>
    <path
      xmlns="http://www.w3.org/2000/svg"
      d="M57,17.7c-1.4,0-2.5-1.1-2.5-2.5V6.8c0-1.4,1.1-2.5,2.5-2.5s2.5,1.1,2.5,2.5v8.3C59.5,16.5,58.4,17.7,57,17.7z"
    ></path>
    <path
      xmlns="http://www.w3.org/2000/svg"
      d="M70,17.7c-1.4,0-2.5-1.1-2.5-2.5V6.8c0-1.4,1.1-2.5,2.5-2.5s2.5,1.1,2.5,2.5v8.3C72.5,16.5,71.4,17.7,70,17.7z"
    ></path>
    <path
      xmlns="http://www.w3.org/2000/svg"
      d="M84.8,72.5c-1.4,0-2.5-1.1-2.5-2.5s1.1-2.5,2.5-2.5h8.3c1.4,0,2.5,1.1,2.5,2.5s-1.1,2.5-2.5,2.5H84.8z"
    ></path>
    <path
      xmlns="http://www.w3.org/2000/svg"
      d="M84.8,59.5c-1.4,0-2.5-1.1-2.5-2.5s1.1-2.5,2.5-2.5h8.3c1.4,0,2.5,1.1,2.5,2.5s-1.1,2.5-2.5,2.5H84.8z"
    ></path>
    <path
      xmlns="http://www.w3.org/2000/svg"
      d="M84.8,45.5c-1.4,0-2.5-1.1-2.5-2.5s1.1-2.5,2.5-2.5h8.3c1.4,0,2.5,1.1,2.5,2.5s-1.1,2.5-2.5,2.5H84.8z"
    ></path>
    <path
      xmlns="http://www.w3.org/2000/svg"
      d="M84.8,32.5c-1.4,0-2.5-1.1-2.5-2.5s1.1-2.5,2.5-2.5h8.3c1.4,0,2.5,1.1,2.5,2.5s-1.1,2.5-2.5,2.5H84.8z"
    ></path>
    <path
      xmlns="http://www.w3.org/2000/svg"
      d="M6.8,72.5c-1.4,0-2.5-1.1-2.5-2.5s1.1-2.5,2.5-2.5h8.3c1.4,0,2.5,1.1,2.5,2.5s-1.1,2.5-2.5,2.5H6.8z"
    ></path>
    <path
      xmlns="http://www.w3.org/2000/svg"
      d="M6.8,59.5c-1.4,0-2.5-1.1-2.5-2.5s1.1-2.5,2.5-2.5h8.3c1.4,0,2.5,1.1,2.5,2.5s-1.1,2.5-2.5,2.5H6.8z"
    ></path>
    <path
      xmlns="http://www.w3.org/2000/svg"
      d="M6.8,45.5c-1.4,0-2.5-1.1-2.5-2.5s1.1-2.5,2.5-2.5h8.3c1.4,0,2.5,1.1,2.5,2.5s-1.1,2.5-2.5,2.5H6.8z"
    ></path>
    <path
      xmlns="http://www.w3.org/2000/svg"
      d="M6.8,32.5c-1.4,0-2.5-1.1-2.5-2.5s1.1-2.5,2.5-2.5h8.3c1.4,0,2.5,1.1,2.5,2.5s-1.1,2.5-2.5,2.5H6.8z"
    ></path>
  </g>
  <g
    id="SvgjsG1015"
    featurekey="nameLeftFeature-0"
    transform="matrix(2.307692251261876,0,0,2.307692251261876,108.15384685922655,16.846154974762477)"
    fill="#ffffc2"
  >
    <path
      d="M0.8 20 l6.32 -15.6 l3.96 0 l6.3 15.6 l-4.36 0 l-1.26 -3.48 l-5.3 0 l-1.3 3.48 l-4.36 0 z M7.7 13.280000000000001 l2.78 -0.02 l-1.38 -3.74 z M18.98 20 l0 -15.6 l4 0 l0 15.6 l-4 0 z"
    ></path>
  </g>
  <g
    id="SvgjsG1016"
    featurekey="nameRightFeature-0"
    transform="matrix(2.4824160800186763,0,0,2.4824160800186763,165.969684837684,12.866836243830743)"
    fill="#ffffc2"
  >
    <path
      d="M13.1250125 20.19531 c-4.0723 0 -7.0703 -2.8125 -7.0703 -7.2168 c0 -4.4629 3.0664 -7.2852 7.2168 -7.2852 c2.7246 0 4.9805 1.2012 6.2109 3.3203 l-2.5684 1.3672 c-0.74219 -1.4453 -2.0703 -2.1387 -3.6426 -2.1387 c-2.4414 0 -4.2773 1.6797 -4.2773 4.668 c0 2.8809 1.7188 4.7363 4.3848 4.7363 c1.8066 0 3.4668 -0.89844 3.8672 -2.959 l-3.8574 0 l0 -2.3535 l6.6309 0 l0 7.666 l-2.3047 0 l0 -1.9531 c-0.9082 1.3379 -2.4316 2.1484 -4.5898 2.1484 z M31.240468749999998 8.467 l-5.2344 0 l0 3.2031 l4.6387 0 l0 2.5488 l-4.6387 0 l0 3.1934 l5.2344 0 l0 2.5879 l-8.1836 0 l0 -14.111 l8.1836 0 l0 2.5781 z M43.701640624999996 20 l-1.0254 -2.9102 l-5.9277 0 l-1.0254 2.9102 l-2.998 0 l5.1953 -14.111 l3.584 0 l5.1953 14.111 l-2.998 0 z M37.607440625 14.6387 l4.209 0 l-2.0996 -5.9863 z M56.2694875 20 l-3.6719 -6.2109 l-0.84961 0 l0 6.2109 l-2.9297 0 l0 -14.111 l5.1172 0 c3.1934 0 4.541 1.8848 4.541 4.2188 c0 1.8945 -1.0742 3.125 -2.9883 3.5352 l4.248 6.3574 l-3.4668 0 z M51.7480875 8.32 l0 3.3691 l1.7285 0 c1.5625 0 2.1973 -0.66406 2.1973 -1.6797 c0 -1.0059 -0.63477 -1.6895 -2.1973 -1.6895 l-1.7285 0 z"
    ></path>
  </g>
</svg>
