<svg width="694" height="694" viewBox="0 0 694 694" fill="none" xmlns="http://www.w3.org/2000/svg">
<path d="M214.357 546.696C177.871 546.696 147.466 517.083 147.466 479.877V214.123C147.466 177.676 177.111 147.304 214.357 147.304H479.643C516.129 147.304 546.535 176.917 546.535 214.123V479.118C546.535 515.565 516.889 545.937 479.643 545.937H214.357V546.696ZM214.357 185.269C198.394 185.269 185.472 198.177 185.472 214.123V479.118C185.472 495.063 198.394 507.972 214.357 507.972H479.643C495.606 507.972 508.528 495.063 508.528 479.118V214.123C508.528 198.177 495.606 185.269 479.643 185.269H214.357Z" fill="url(#paint0_linear_13_3)"/>
<path d="M195.354 694C184.712 694 176.35 685.648 176.35 675.018V611.996C176.35 601.365 184.712 593.013 195.354 593.013C205.996 593.013 214.357 601.365 214.357 611.996V675.018C214.357 684.888 205.996 694 195.354 694Z" fill="url(#paint1_linear_13_3)"/>
<path d="M294.171 694C283.529 694 275.168 685.648 275.168 675.018V611.996C275.168 601.365 283.529 593.013 294.171 593.013C304.813 593.013 313.174 601.365 313.174 611.996V675.018C313.174 684.888 304.813 694 294.171 694Z" fill="url(#paint2_linear_13_3)"/>
<path d="M400.589 694C389.947 694 381.586 685.648 381.586 675.018V611.996C381.586 601.365 389.947 593.013 400.589 593.013C411.231 593.013 419.593 601.365 419.593 611.996V675.018C419.593 684.888 411.231 694 400.589 694Z" fill="url(#paint3_linear_13_3)"/>
<path d="M499.406 694C488.765 694 480.403 685.648 480.403 675.018V611.996C480.403 601.365 488.765 593.013 499.406 593.013C510.048 593.013 518.41 601.365 518.41 611.996V675.018C518.41 684.888 510.048 694 499.406 694Z" fill="url(#paint4_linear_13_3)"/>
<path d="M195.354 101.746C184.712 101.746 176.35 93.3939 176.35 82.7637V18.9825C176.35 8.3523 184.712 0 195.354 0C205.996 0 214.357 8.3523 214.357 18.9825V82.0044C214.357 92.6346 205.996 101.746 195.354 101.746Z" fill="url(#paint5_linear_13_3)"/>
<path d="M294.171 101.746C283.529 101.746 275.168 93.3939 275.168 82.7637V18.9825C275.168 8.3523 283.529 0 294.171 0C304.813 0 313.174 8.3523 313.174 18.9825V82.0044C313.174 92.6346 304.813 101.746 294.171 101.746Z" fill="url(#paint6_linear_13_3)"/>
<path d="M400.589 101.746C389.947 101.746 381.586 93.3939 381.586 82.7637V18.9825C381.586 8.3523 389.947 0 400.589 0C411.231 0 419.593 8.3523 419.593 18.9825V82.0044C419.593 92.6346 411.231 101.746 400.589 101.746Z" fill="url(#paint7_linear_13_3)"/>
<path d="M499.406 101.746C488.765 101.746 480.403 93.3939 480.403 82.7637V18.9825C480.403 8.3523 488.765 0 499.406 0C510.048 0 518.41 8.3523 518.41 18.9825V82.0044C518.41 92.6346 510.048 101.746 499.406 101.746Z" fill="url(#paint8_linear_13_3)"/>
<path d="M611.906 419.133C601.264 419.133 592.903 410.781 592.903 400.151C592.903 389.521 601.264 381.168 611.906 381.168H674.997C685.639 381.168 694 389.521 694 400.151C694 410.781 685.639 419.133 674.997 419.133H611.906Z" fill="url(#paint9_linear_13_3)"/>
<path d="M611.906 312.832C601.264 312.832 592.903 304.479 592.903 293.849C592.903 283.219 601.264 274.867 611.906 274.867H674.997C685.639 274.867 694 283.219 694 293.849C694 304.479 685.639 312.832 674.997 312.832H611.906Z" fill="url(#paint10_linear_13_3)"/>
<path d="M611.906 214.123C601.264 214.123 592.903 205.77 592.903 195.14C592.903 184.51 601.264 176.158 611.906 176.158H674.997C685.639 176.158 694 184.51 694 195.14C694 205.77 685.639 214.123 674.997 214.123H611.906Z" fill="url(#paint11_linear_13_3)"/>
<path d="M608.072 515.653C597.43 515.653 589.069 507.301 589.069 496.671C589.069 486.041 597.43 477.688 608.072 477.688H671.163C681.805 477.688 690.166 486.041 690.166 496.671C690.166 507.301 681.805 515.653 671.163 515.653H608.072Z" fill="url(#paint12_linear_13_3)"/>
<path d="M19.0033 517.842C8.36145 517.842 0 509.49 0 498.86C0 488.23 8.36145 479.877 19.0033 479.877H82.0942C92.736 479.877 101.097 488.23 101.097 498.86C101.097 509.49 92.736 517.842 82.0942 517.842H19.0033Z" fill="url(#paint13_linear_13_3)"/>
<path d="M19.0033 419.133C8.36145 419.133 0 410.781 0 400.151C0 389.521 8.36145 381.168 19.0033 381.168H82.0942C92.736 381.168 101.097 389.521 101.097 400.151C101.097 410.781 92.736 419.133 82.0942 419.133H19.0033Z" fill="url(#paint14_linear_13_3)"/>
<path d="M19.0033 312.832C8.36145 312.832 0 304.479 0 293.849C0 283.219 8.36145 274.867 19.0033 274.867H82.0942C92.736 274.867 101.097 283.219 101.097 293.849C101.097 304.479 92.736 312.832 82.0942 312.832H19.0033Z" fill="url(#paint15_linear_13_3)"/>
<path d="M19.0033 214.123C8.36145 214.123 0 205.77 0 195.14C0 184.51 8.36145 176.158 19.0033 176.158H82.0942C92.736 176.158 101.097 184.51 101.097 195.14C101.097 205.77 92.736 214.123 82.0942 214.123H19.0033Z" fill="url(#paint16_linear_13_3)"/>
<path d="M219.131 432.623L288.584 261.377H332.102L401.335 432.623H353.422L339.575 394.422H281.331L267.045 432.623H219.131ZM294.958 358.856L325.509 358.636L310.343 317.581L294.958 358.856ZM418.918 432.623V261.377H462.876V432.623H418.918Z" fill="#FFFFC2"/>
<defs>
<linearGradient id="paint0_linear_13_3" x1="652.229" y1="13.5194" x2="84.4627" y2="631.528" gradientUnits="userSpaceOnUse">
<stop stop-color="#C8E7ED"/>
<stop offset="1" stop-color="#3EB8EC"/>
</linearGradient>
<linearGradient id="paint1_linear_13_3" x1="652.229" y1="13.5194" x2="84.4627" y2="631.528" gradientUnits="userSpaceOnUse">
<stop stop-color="#C8E7ED"/>
<stop offset="1" stop-color="#3EB8EC"/>
</linearGradient>
<linearGradient id="paint2_linear_13_3" x1="652.229" y1="13.5194" x2="84.4627" y2="631.528" gradientUnits="userSpaceOnUse">
<stop stop-color="#C8E7ED"/>
<stop offset="1" stop-color="#3EB8EC"/>
</linearGradient>
<linearGradient id="paint3_linear_13_3" x1="652.229" y1="13.5194" x2="84.4627" y2="631.528" gradientUnits="userSpaceOnUse">
<stop stop-color="#C8E7ED"/>
<stop offset="1" stop-color="#3EB8EC"/>
</linearGradient>
<linearGradient id="paint4_linear_13_3" x1="652.229" y1="13.5194" x2="84.4627" y2="631.528" gradientUnits="userSpaceOnUse">
<stop stop-color="#C8E7ED"/>
<stop offset="1" stop-color="#3EB8EC"/>
</linearGradient>
<linearGradient id="paint5_linear_13_3" x1="652.229" y1="13.5194" x2="84.4627" y2="631.528" gradientUnits="userSpaceOnUse">
<stop stop-color="#C8E7ED"/>
<stop offset="1" stop-color="#3EB8EC"/>
</linearGradient>
<linearGradient id="paint6_linear_13_3" x1="652.229" y1="13.5194" x2="84.4627" y2="631.528" gradientUnits="userSpaceOnUse">
<stop stop-color="#C8E7ED"/>
<stop offset="1" stop-color="#3EB8EC"/>
</linearGradient>
<linearGradient id="paint7_linear_13_3" x1="652.229" y1="13.5194" x2="84.4627" y2="631.528" gradientUnits="userSpaceOnUse">
<stop stop-color="#C8E7ED"/>
<stop offset="1" stop-color="#3EB8EC"/>
</linearGradient>
<linearGradient id="paint8_linear_13_3" x1="652.229" y1="13.5194" x2="84.4627" y2="631.528" gradientUnits="userSpaceOnUse">
<stop stop-color="#C8E7ED"/>
<stop offset="1" stop-color="#3EB8EC"/>
</linearGradient>
<linearGradient id="paint9_linear_13_3" x1="652.229" y1="13.5194" x2="84.4627" y2="631.528" gradientUnits="userSpaceOnUse">
<stop stop-color="#C8E7ED"/>
<stop offset="1" stop-color="#3EB8EC"/>
</linearGradient>
<linearGradient id="paint10_linear_13_3" x1="652.229" y1="13.5194" x2="84.4627" y2="631.528" gradientUnits="userSpaceOnUse">
<stop stop-color="#C8E7ED"/>
<stop offset="1" stop-color="#3EB8EC"/>
</linearGradient>
<linearGradient id="paint11_linear_13_3" x1="652.229" y1="13.5194" x2="84.4627" y2="631.528" gradientUnits="userSpaceOnUse">
<stop stop-color="#C8E7ED"/>
<stop offset="1" stop-color="#3EB8EC"/>
</linearGradient>
<linearGradient id="paint12_linear_13_3" x1="652.229" y1="13.5194" x2="84.4627" y2="631.528" gradientUnits="userSpaceOnUse">
<stop stop-color="#C8E7ED"/>
<stop offset="1" stop-color="#3EB8EC"/>
</linearGradient>
<linearGradient id="paint13_linear_13_3" x1="652.229" y1="13.5194" x2="84.4627" y2="631.528" gradientUnits="userSpaceOnUse">
<stop stop-color="#C8E7ED"/>
<stop offset="1" stop-color="#3EB8EC"/>
</linearGradient>
<linearGradient id="paint14_linear_13_3" x1="652.229" y1="13.5194" x2="84.4627" y2="631.528" gradientUnits="userSpaceOnUse">
<stop stop-color="#C8E7ED"/>
<stop offset="1" stop-color="#3EB8EC"/>
</linearGradient>
<linearGradient id="paint15_linear_13_3" x1="652.229" y1="13.5194" x2="84.4627" y2="631.528" gradientUnits="userSpaceOnUse">
<stop stop-color="#C8E7ED"/>
<stop offset="1" stop-color="#3EB8EC"/>
</linearGradient>
<linearGradient id="paint16_linear_13_3" x1="652.229" y1="13.5194" x2="84.4627" y2="631.528" gradientUnits="userSpaceOnUse">
<stop stop-color="#C8E7ED"/>
<stop offset="1" stop-color="#3EB8EC"/>
</linearGradient>
</defs>
</svg>
